<svg width="14" height="14" viewBox="0 0 14 14" fill="none" xmlns="http://www.w3.org/2000/svg">
<path d="M5.94995 1.93743H1.86662C1.5572 1.93743 1.26045 2.06035 1.04166 2.27914C0.822867 2.49793 0.699951 2.79468 0.699951 3.1041V11.2708C0.699951 11.5802 0.822867 11.8769 1.04166 12.0957C1.26045 12.3145 1.5572 12.4374 1.86662 12.4374H10.0333C10.3427 12.4374 10.6394 12.3145 10.8582 12.0957C11.077 11.8769 11.2 11.5802 11.2 11.2708V7.18743" stroke="#808080" stroke-width="1.4" stroke-linecap="round" stroke-linejoin="round"/>
<path d="M10.325 1.06243C10.557 0.830369 10.8718 0.699997 11.2 0.699997C11.5281 0.699997 11.8429 0.830369 12.075 1.06243C12.307 1.2945 12.4374 1.60924 12.4374 1.93743C12.4374 2.26562 12.307 2.58037 12.075 2.81243L6.53328 8.3541L4.19995 8.93743L4.78328 6.6041L10.325 1.06243Z" stroke="#808080" stroke-width="1.4" stroke-linecap="round" stroke-linejoin="round"/>
</svg>
