<svg width="13" height="13" viewBox="0 0 13 13" fill="none" xmlns="http://www.w3.org/2000/svg">
<path d="M6.30104 7.64271L1.60521 12.3385C1.42951 12.5142 1.2059 12.6021 0.934375 12.6021C0.662847 12.6021 0.439236 12.5142 0.263541 12.3385C0.0878469 12.1628 0 11.9392 0 11.6677C0 11.3962 0.0878469 11.1726 0.263541 10.9969L4.95938 6.30104L0.263541 1.60521C0.0878469 1.42951 0 1.2059 0 0.934375C0 0.662847 0.0878469 0.439236 0.263541 0.263541C0.439236 0.0878469 0.662847 0 0.934375 0C1.2059 0 1.42951 0.0878469 1.60521 0.263541L6.30104 4.95938L10.9969 0.263541C11.1726 0.0878469 11.3962 0 11.6677 0C11.9392 0 12.1628 0.0878469 12.3385 0.263541C12.5142 0.439236 12.6021 0.662847 12.6021 0.934375C12.6021 1.2059 12.5142 1.42951 12.3385 1.60521L7.64271 6.30104L12.3385 10.9969C12.5142 11.1726 12.6021 11.3962 12.6021 11.6677C12.6021 11.9392 12.5142 12.1628 12.3385 12.3385C12.1628 12.5142 11.9392 12.6021 11.6677 12.6021C11.3962 12.6021 11.1726 12.5142 10.9969 12.3385L6.30104 7.64271Z" fill="#F2F2F2"/>
</svg>
