<svg width="16" height="16" viewBox="0 0 16 16" fill="none" xmlns="http://www.w3.org/2000/svg">
<g clip-path="url(#clip0_1809_222)">
<path d="M7.98367 1.45152C9.27559 1.45152 10.5385 1.83462 11.6127 2.55238C12.6869 3.27013 13.5241 4.29031 14.0185 5.48389C14.5129 6.67747 14.6423 7.99086 14.3902 9.25796C14.1382 10.5251 13.5161 11.689 12.6026 12.6025C11.689 13.516 10.5251 14.1382 9.25801 14.3902C7.99091 14.6422 6.67753 14.5129 5.48394 14.0185C4.29036 13.5241 3.27018 12.6868 2.55243 11.6126C1.83467 10.5385 1.45157 9.27554 1.45157 7.98361C1.45826 6.25326 2.14861 4.59568 3.37217 3.37212C4.59573 2.14856 6.25331 1.45821 7.98367 1.45152ZM7.98367 -5.52587e-05C6.40605 0.00639867 4.86572 0.480113 3.55711 1.36128C2.24851 2.24245 1.2303 3.49158 0.631045 4.95096C0.031785 6.41034 -0.121666 8.01455 0.190064 9.56108C0.501794 11.1076 1.26473 12.5271 2.38256 13.6404C3.50038 14.7536 4.92298 15.5108 6.47076 15.8162C8.01855 16.1216 9.62212 15.9616 11.079 15.3564C12.536 14.7512 13.7809 13.7279 14.6567 12.4157C15.5326 11.1035 16 9.56124 16 7.98361C16 6.93243 15.7924 5.89159 15.3892 4.92083C14.9859 3.95008 14.3949 3.06851 13.6501 2.32673C12.9053 1.58495 12.0213 0.997557 11.0489 0.598266C10.0765 0.198974 9.03484 -0.00435556 7.98367 -5.52587e-05Z" fill="#F2F2F2"/>
<path d="M11.7069 7.38117H8.49534V4.16956H7.41391V7.38117H4.19867V8.46259H7.41391V11.6742H8.49534V8.46259H11.7069V7.38117Z" fill="#F2F2F2"/>
</g>
<defs>
<clipPath id="clip0_1809_222">
<rect width="16" height="16" fill="white"/>
</clipPath>
</defs>
</svg>
